<?xml version="1.0" encoding="UTF-8" standalone="no"?>
<svg
   xmlns:dc="http://purl.org/dc/elements/1.1/"
   xmlns:cc="http://creativecommons.org/ns#"
   xmlns:rdf="http://www.w3.org/1999/02/22-rdf-syntax-ns#"
   xmlns:svg="http://www.w3.org/2000/svg"
   xmlns="http://www.w3.org/2000/svg"
   viewBox="0 0 1056 816"
   height="816"
   width="1056"
   xml:space="preserve"
   id="svg2"
   version="1.1"><metadata
     id="metadata8"><rdf:RDF><cc:Work
         rdf:about=""><dc:format>image/svg+xml</dc:format><dc:type
           rdf:resource="http://purl.org/dc/dcmitype/StillImage" /></cc:Work></rdf:RDF></metadata><defs
     id="defs6"><clipPath
       id="clipPath18"
       clipPathUnits="userSpaceOnUse"><path
         id="path16"
         d="M 0,612 H 792 V 0 H 0 Z" /></clipPath></defs><g
     transform="matrix(1.3333333,0,0,-1.3333333,0,816)"
     id="g10"><g
       id="g12"><g
         clip-path="url(#clipPath18)"
         id="g14"><g
           transform="translate(522.6553,278.4268)"
           id="g20"><path
             id="path22"
             style="fill:#231f20;fill-opacity:1;fill-rule:evenodd;stroke:none"
             d="m 0,0 c -0.079,-0.372 -0.161,-0.757 -0.273,-1.29 -7.618,1.761 -15.2,3.513 -22.88,5.288 0.389,0.959 0.701,1.819 1.096,2.638 0.111,0.23 0.448,0.421 0.715,0.487 0.34,0.084 0.715,0.025 1.075,0.025 13.839,0 27.679,-0.084 41.516,0.048 4.602,0.044 9.059,-0.467 13.48,-1.653 2.809,-0.753 5.659,-1.355 8.481,-2.06 0.794,-0.198 1.469,-0.185 2.045,0.479 0.761,0.876 1.661,0.951 2.785,0.691 5.786,-1.338 11.589,-2.602 17.392,-3.862 0.747,-0.162 1.109,-0.543 1.418,-1.226 0.206,-0.454 0.744,-0.949 1.218,-1.061 8.182,-1.942 16.376,-3.834 24.573,-5.709 0.43,-0.098 0.99,-0.078 1.368,0.119 2.259,1.179 4.503,0.947 6.915,0.415 19.771,-4.366 39.563,-8.639 59.349,-12.939 11.062,-2.405 22.125,-4.803 33.184,-7.221 0.408,-0.09 0.943,-0.246 1.14,-0.551 1.438,-2.239 3.015,-4.425 4.135,-6.82 1.164,-2.488 -0.49,-5.924 -2.899,-7.213 -1.962,-1.049 -4.095,-1.462 -6.206,-1.572 -1.618,-0.084 -3.28,0.553 -4.915,0.902 -23.154,4.947 -46.308,9.896 -69.46,14.852 -7.679,1.642 -15.356,3.294 -23.023,4.99 -0.492,0.108 -1.126,0.543 -1.293,0.979 -0.842,2.202 -2.37,3.057 -4.702,3.463 -6.949,1.21 -13.845,2.725 -20.756,4.145 -0.777,0.159 -1.411,0.105 -1.928,-0.543 -1.064,-1.332 -2.328,-1.482 -3.989,-1.095 -5.707,1.329 -11.453,2.482 -17.188,3.682 -0.718,0.15 -1.233,0.423 -1.462,1.174 -0.136,0.446 -0.406,0.851 -0.652,1.347 -3.342,-0.784 -6.635,-1.543 -9.916,-2.351 -0.257,-0.064 -0.533,-0.428 -0.63,-0.711 -2.097,-6.151 -2.646,-12.416 -1.8,-18.887 0.274,-2.094 1.252,-3.047 2.796,-4.218 2.503,-1.898 5.054,-1.988 7.95,-1.584 5.93,0.826 11.887,1.455 17.836,2.142 0.815,0.094 1.357,0.328 1.685,1.19 0.678,1.787 1.477,3.531 2.287,5.264 0.176,0.375 0.578,0.86 0.927,0.905 1.937,0.25 3.887,0.475 5.837,0.529 2.948,0.081 3.957,-0.654 4.996,-3.445 0.572,-1.534 1.026,-3.069 0.398,-4.761 -0.291,-0.782 -0.692,-1.055 -1.441,-1.131 -0.785,-0.08 -1.559,-0.25 -2.366,-0.385 v -1.641 c -1.844,-0.351 -3.733,-0.798 -5.647,-1.059 -6.05,-0.827 -12.109,-1.588 -18.167,-2.361 -0.805,-0.102 -1.539,-0.219 -2.324,0.455 -0.428,0.368 -1.432,0.066 -2.175,0.066 -0.033,-0.118 -0.065,-0.237 -0.097,-0.355 1.573,-0.807 3.102,-1.727 4.736,-2.388 1.408,-0.571 2.007,-1.411 1.695,-2.882 -0.35,-1.648 0.306,-2.624 1.932,-3.008 0.344,-0.081 0.652,-0.304 0.991,-0.416 0.731,-0.241 0.849,-0.589 0.72,-1.418 -0.195,-1.264 -0.085,-2.6 0.09,-3.878 0.046,-0.334 0.789,-0.612 1.249,-0.842 1.205,-0.6 2.2,-0.359 2.872,0.856 0.41,0.74 0.915,0.79 1.669,0.465 1.5,-0.648 3.059,-1.155 4.557,-1.804 0.339,-0.148 0.686,-0.61 0.761,-0.983 0.733,-3.694 -0.276,-7.074 -2.247,-10.13 -0.799,-1.239 -2.137,-2.134 -3.256,-3.157 -0.137,-0.125 -0.451,-0.128 -0.664,-0.088 -2.385,0.456 -4.766,0.93 -7.219,1.414 0.14,0.827 0.269,1.593 0.395,2.34 -1.444,0.674 -2.719,0.636 -3.839,-0.539 -1.008,-1.056 -2.106,-1.141 -3.549,-0.743 -8.603,2.376 -17.239,4.627 -25.865,6.919 -1.971,0.524 -3.941,1.053 -5.913,1.573 -1.57,0.415 -1.926,0.336 -2.677,-1.093 -1.54,-2.932 -4.278,-4.155 -7.166,-5.166 -0.358,-0.125 -0.852,0.043 -1.257,0.161 -2.906,0.849 -5.783,1.813 -8.72,2.54 -1.227,0.303 -2.596,0.273 -3.866,0.119 -2.049,-0.249 -4.067,-0.744 -6.106,-1.094 -0.495,-0.085 -1.036,-0.094 -1.524,0.012 -1.675,0.359 -3.346,0.749 -4.993,1.214 -0.35,0.098 -0.847,0.556 -0.853,0.857 -0.061,3.194 -0.038,6.39 -0.038,9.654 -0.006,-0.003 0.093,0.076 0.204,0.102 0.72,0.166 1.679,0.1 2.095,0.544 0.385,0.411 0.164,1.368 0.254,2.08 0.445,3.56 0.616,7.186 1.436,10.658 0.939,3.986 3.259,7.327 6.323,10.091 0.179,0.163 0.512,0.28 0.744,0.241 1.684,-0.287 3.361,-0.619 5.161,-0.96 -0.303,-0.88 -0.568,-1.658 -0.839,-2.434 -0.673,-1.935 -0.281,-2.866 1.532,-3.63 0.621,-0.262 1.246,-0.517 1.979,-0.821 1.391,2.959 2.758,5.865 4.184,8.895 1.21,-0.714 2.362,-1.392 3.642,-2.145 0.442,0.835 0.859,1.625 1.318,2.493 1.222,-0.263 2.438,-0.465 3.61,-0.813 0.332,-0.097 0.703,-0.591 0.77,-0.955 0.232,-1.254 0.405,-2.527 0.464,-3.8 0.034,-0.742 0.414,-0.926 0.997,-1.063 2.363,-0.552 4.721,-1.119 7.156,-1.698 -0.199,-1.058 -0.378,-2.024 -0.586,-3.138 1.587,0.158 3.255,-0.212 4.276,1.455 0.216,0.353 0.428,0.755 0.477,1.154 0.651,5.389 1.061,10.817 1.978,16.158 0.589,3.429 1.904,6.734 2.912,10.089 0.636,2.116 0.7,1.521 -1.026,2.615 -1.614,1.022 -3.358,1.615 -5.227,1.935 -0.602,0.104 -1.395,0.251 -1.705,0.671 -0.694,0.941 -1.64,1.009 -2.609,1.198 C 8.832,-3.424 5.827,-2.803 2.814,-2.225 2.173,-2.102 1.83,-1.788 1.782,-1.145 1.705,-0.097 1.204,0.371 0,0" /></g><g
           transform="translate(476.8701,267.9873)"
           id="g24"><path
             id="path26"
             style="fill:#231f20;fill-opacity:1;fill-rule:evenodd;stroke:none"
             d="m 0,0 c 3.795,-3.081 7.47,-6.064 11.145,-9.048 -0.03,-0.105 -0.06,-0.211 -0.09,-0.316 -16.336,0.498 -32.672,0.997 -49.328,1.505 6.428,7.771 12.699,15.35 19.032,23.005 2.175,-1.759 4.295,-3.437 6.368,-5.173 0.735,-0.618 1.325,-0.711 2.236,-0.248 10.018,5.086 16.819,12.972 20.283,23.611 0.974,2.991 1.459,6.208 1.705,9.358 0.752,9.633 -1.945,18.397 -7.442,26.266 -3.265,4.675 -7.472,8.394 -12.46,11.222 -4.781,2.71 -9.888,4.42 -15.319,5.142 -6.408,0.852 -12.652,0.05 -18.694,-2.198 -6.65,-2.472 -12.315,-6.418 -16.928,-11.803 -4.314,-5.035 -7.111,-10.836 -8.523,-17.33 -2.193,-10.093 -0.575,-19.617 4.464,-28.51 4.478,-7.901 11.052,-13.574 19.501,-17.003 1.54,-0.625 3.105,-1.188 4.724,-1.805 -1.547,-4.262 -3.067,-8.447 -4.635,-12.767 -7.916,2.483 -15.063,6.263 -21.092,11.903 -8.896,8.322 -14.699,18.5 -16.768,30.529 -4.444,25.835 10.564,51.249 35.26,59.929 C -22.974,104.56 4.114,95.518 17.62,72.876 25.007,60.493 26.97,46.974 23.6,32.952 20.23,18.934 12.387,7.875 0,0" /></g><g
           transform="translate(85.7554,328.0093)"
           id="g28"><path
             id="path30"
             style="fill:#231f20;fill-opacity:1;fill-rule:evenodd;stroke:none"
             d="m 0,0 c 4.018,0.172 7.892,0.155 11.719,0.566 2.649,0.284 4.42,2.083 5.26,4.654 1.09,3.334 -0.315,6.118 -3.608,6.394 C 9.813,11.912 6.211,11.682 2.475,11.682 1.693,7.991 0.879,4.148 0,0 m 26.524,-6.635 c 0.357,-0.222 0.615,-0.401 0.889,-0.549 3.68,-2.002 5.543,-5.175 5.536,-9.283 -0.009,-4.234 -0.226,-8.474 -0.539,-12.698 -0.222,-3.01 -0.475,-5.967 1.208,-8.848 -0.579,-0.033 -0.963,-0.073 -1.347,-0.073 -6.957,-0.004 -13.915,0.021 -20.873,-0.031 -1.006,-0.008 -1.581,0.325 -1.637,1.253 -0.125,2.063 -0.282,4.14 -0.166,6.197 0.142,2.546 0.631,5.074 0.801,7.621 0.081,1.207 -0.065,2.488 -0.399,3.653 -0.733,2.555 -2.939,4.071 -5.938,4.185 -2.116,0.08 -4.239,-0.005 -6.357,0.048 -0.778,0.019 -0.887,-0.389 -1.015,-1.001 -1.473,-6.988 -2.979,-13.97 -4.45,-20.96 -0.131,-0.622 -0.259,-0.987 -1.026,-0.984 -6.998,0.029 -13.995,0.019 -20.993,0.023 -0.156,0 -0.312,0.041 -0.58,0.08 0.654,3.139 1.289,6.251 1.95,9.357 2.856,13.425 5.719,26.849 8.581,40.272 1.098,5.151 2.219,10.297 3.282,15.454 0.153,0.738 0.417,0.97 1.17,0.968 C -3.704,28.022 7.973,28.057 19.649,28 22.894,27.985 26.094,27.487 29.165,26.343 37.364,23.289 40.481,16.588 39.821,8.762 39.164,0.964 34.72,-3.804 27.513,-6.275 27.217,-6.376 26.926,-6.489 26.524,-6.635" /></g><g
           transform="translate(531.0098,327.981)"
           id="g32"><path
             id="path34"
             style="fill:#231f20;fill-opacity:1;fill-rule:evenodd;stroke:none"
             d="m 0,0 c 4.087,0.204 8.042,0.185 11.934,0.668 2.861,0.355 4.596,2.403 5.214,5.256 0.719,3.317 -0.826,5.559 -4.234,5.796 -3.22,0.224 -6.459,0.172 -9.69,0.19 C 2.952,11.912 2.491,11.566 2.435,11.311 1.615,7.662 0.851,4 0,0 m -3.048,-15.153 c -1.673,-7.615 -3.329,-15.156 -4.997,-22.75 h -22.197 c 0.806,3.784 1.608,7.507 2.391,11.234 2.978,14.165 5.946,28.332 8.923,42.497 0.788,3.749 1.612,7.49 2.379,11.244 0.142,0.691 0.344,1.011 1.141,1.009 11.719,-0.033 23.438,0.016 35.156,-0.06 4.148,-0.026 8.192,-0.773 11.91,-2.77 4.536,-2.436 7.214,-6.211 7.98,-11.293 0.718,-4.77 0.165,-9.328 -2.597,-13.433 -2.262,-3.362 -5.522,-5.361 -9.26,-6.692 -0.363,-0.13 -0.727,-0.259 -1.184,-0.422 0.205,-0.168 0.31,-0.291 0.443,-0.358 4.489,-2.246 6.15,-6.083 5.962,-10.855 -0.168,-4.273 -0.484,-8.539 -0.756,-12.808 -0.16,-2.535 -0.056,-5.016 1.402,-7.357 H 28.977 11.818 c -1.673,0 -1.96,0.103 -2.098,1.845 -0.159,2.018 -0.11,4.067 0.021,6.09 0.155,2.39 0.525,4.764 0.747,7.149 0.429,4.601 -2.3,7.65 -6.907,7.724 -2.157,0.034 -4.316,0.006 -6.629,0.006" /></g><g
           transform="translate(737.752,337.6328)"
           id="g36"><path
             id="path38"
             style="fill:#231f20;fill-opacity:1;fill-rule:evenodd;stroke:none"
             d="m 0,0 c -2.886,-2.667 -5.668,-5.242 -8.454,-7.813 -3.349,-3.093 -6.681,-6.206 -10.069,-9.254 -0.668,-0.601 -0.669,-1.043 -0.328,-1.8 4.194,-9.276 8.352,-18.567 12.517,-27.855 0.112,-0.25 0.198,-0.511 0.359,-0.93 -0.471,-0.024 -0.849,-0.059 -1.228,-0.059 -6.838,-0.003 -13.676,0.02 -20.514,-0.026 -0.944,-0.007 -1.309,0.348 -1.606,1.171 -1.639,4.541 -3.328,9.062 -5.002,13.589 -0.123,0.333 -0.26,0.662 -0.431,1.096 -1.745,-1.413 -3.41,-2.642 -3.762,-5.125 -0.459,-3.232 -1.302,-6.41 -1.947,-9.618 -0.153,-0.766 -0.409,-1.12 -1.306,-1.113 -6.477,0.046 -12.957,0.023 -19.434,0.027 -0.313,0 -0.625,0.04 -1.108,0.073 4.684,22.03 9.354,43.984 14.032,65.984 h 20.569 C -28.196,16.075 -28.66,13.834 -29.154,11.6 -30.318,6.342 -31.4,1.063 -32.715,-4.157 c -0.58,-2.304 -1.642,-4.487 -2.489,-6.723 -0.123,-0.326 -0.262,-0.646 -0.253,-1.058 0.414,0.542 0.777,1.132 1.251,1.615 3.296,3.365 6.608,6.715 9.941,10.045 0.248,0.247 0.694,0.419 1.048,0.42 7.598,0.022 15.196,0.014 22.794,0.008 C -0.354,0.15 -0.284,0.103 0,0" /></g><g
           transform="translate(599.9375,311.1636)"
           id="g40"><path
             id="path42"
             style="fill:#231f20;fill-opacity:1;fill-rule:evenodd;stroke:none"
             d="m 0,0 c -2.429,-0.572 -4.92,-1.07 -7.357,-1.761 -2.016,-0.571 -4.04,-1.215 -5.924,-2.115 -1.479,-0.707 -1.86,-2.249 -1.58,-3.824 0.245,-1.379 1.263,-2.2 2.552,-2.359 1.559,-0.193 3.213,-0.36 4.723,-0.046 C -3.297,-9.213 -0.171,-4.833 0,0 m -29.622,11.651 c 1.484,6.379 4.636,11.432 10.788,13.959 2.501,1.027 5.293,1.581 8,1.826 7.662,0.691 15.338,0.69 22.932,-0.82 3.692,-0.734 6.971,-2.299 9.425,-5.278 1.759,-2.135 2.388,-4.559 1.812,-7.288 -0.998,-4.724 -1.982,-9.452 -2.964,-14.18 -0.602,-2.903 0.709,-4.257 3.778,-3.733 -0.481,-2.411 -0.943,-4.772 -1.427,-7.128 -0.62,-3.009 -1.273,-6.011 -1.876,-9.023 -0.135,-0.67 -0.355,-1.065 -1.124,-1.113 -4.74,-0.3 -9.475,-0.666 -14.216,-0.938 -0.983,-0.057 -1.99,0.144 -2.972,0.313 -2.816,0.481 -4.781,1.924 -5.222,4.976 -0.222,-0.109 -0.35,-0.136 -0.422,-0.214 -3.909,-4.233 -8.937,-5.487 -14.454,-5.43 -3.34,0.034 -6.62,0.433 -9.718,1.772 -5.052,2.182 -7.919,6.006 -8.21,11.52 -0.303,5.734 1.676,10.423 6.85,13.416 3.246,1.877 6.856,2.553 10.489,3.14 5.475,0.884 10.955,1.743 16.426,2.648 0.74,0.122 1.477,0.376 2.164,0.684 1.209,0.543 1.877,1.977 1.688,3.423 -0.139,1.063 -0.902,1.728 -2.436,1.884 -1.139,0.117 -2.326,0.21 -3.441,0.02 -2.028,-0.344 -3.143,-1.795 -3.649,-3.698 -0.164,-0.613 -0.37,-0.854 -1.023,-0.852 -6.878,0.022 -13.756,0.015 -20.634,0.019 -0.116,0 -0.233,0.038 -0.564,0.095" /></g><g
           transform="translate(280.8857,311.1792)"
           id="g44"><path
             id="path46"
             style="fill:#231f20;fill-opacity:1;fill-rule:evenodd;stroke:none"
             d="m 0,0 c -2.393,-0.572 -4.745,-1.147 -7.103,-1.696 -2.211,-0.514 -4.485,-0.86 -6.376,-2.256 -1.199,-0.886 -1.632,-2.13 -1.431,-3.584 0.202,-1.46 1.179,-2.343 2.518,-2.528 1.555,-0.216 3.213,-0.384 4.725,-0.074 C -3.366,-9.258 -0.296,-5.007 0,0 M -7.711,11.574 H -29.72 c 0.463,1.472 0.782,2.897 1.347,4.217 2.961,6.907 8.306,10.692 15.699,11.475 8.258,0.874 16.523,0.918 24.722,-0.661 3.362,-0.647 6.394,-2.032 8.799,-4.548 2.318,-2.425 3.15,-5.232 2.364,-8.583 -1.065,-4.544 -1.953,-9.129 -2.913,-13.698 -0.588,-2.792 0.762,-4.163 3.835,-3.652 -0.267,-1.289 -0.517,-2.508 -0.771,-3.726 -0.871,-4.179 -1.764,-8.354 -2.597,-12.539 -0.136,-0.681 -0.398,-0.952 -1.072,-0.996 -4.778,-0.31 -9.552,-0.7 -14.334,-0.929 -1.288,-0.06 -2.622,0.257 -3.894,0.564 -2.161,0.521 -3.561,1.885 -4.055,4.102 -0.034,0.153 -0.103,0.299 -0.163,0.445 -0.014,0.032 -0.062,0.048 -0.095,0.074 -0.07,-0.02 -0.165,-0.019 -0.209,-0.066 -5.045,-5.374 -11.481,-5.956 -18.257,-5.235 -1.537,0.164 -3.08,0.516 -4.552,0.991 -7.22,2.327 -10.844,8.533 -9.46,16 1.107,5.98 4.908,9.567 10.51,11.068 4.413,1.183 9.006,1.691 13.519,2.507 3.531,0.638 7.076,1.216 10.585,1.961 1.993,0.423 2.616,1.326 2.784,3.234 0.103,1.165 -0.374,1.957 -1.5,2.258 -3.21,0.859 -6.958,0.962 -8.283,-4.263" /></g><g
           transform="translate(452.2822,312.291)"
           id="g48"><path
             id="path50"
             style="fill:#231f20;fill-opacity:1;fill-rule:evenodd;stroke:none"
             d="m 0,0 c -2.339,-0.553 -4.64,-1.011 -6.887,-1.654 -2.203,-0.631 -4.421,-1.3 -6.501,-2.242 -1.366,-0.618 -1.83,-2.082 -1.628,-3.581 0.209,-1.541 1.304,-2.292 2.716,-2.674 3.547,-0.962 7.38,0.331 9.634,3.233 C -1.048,-4.835 -0.432,-2.388 0,0 m -7.712,11.61 h -21.956 c 0.633,3.585 2.142,6.68 4.433,9.409 3.033,3.612 7.018,5.543 11.601,6.103 8.729,1.065 17.461,1.117 26.125,-0.642 3.448,-0.701 6.466,-2.276 8.796,-4.995 1.926,-2.247 2.532,-4.812 1.905,-7.712 -1.029,-4.759 -2.017,-9.526 -3.002,-14.295 -0.48,-2.328 0.756,-3.673 3.144,-3.47 0.19,0.016 0.378,0.058 0.726,0.114 -0.433,-2.132 -0.843,-4.186 -1.269,-6.236 -0.689,-3.321 -1.406,-6.636 -2.071,-9.96 -0.126,-0.633 -0.321,-0.927 -1.028,-1.034 -5.185,-0.79 -10.379,-1.375 -15.63,-0.896 -0.909,0.083 -1.817,0.265 -2.701,0.496 -2.415,0.634 -3.76,2.281 -4.219,4.865 -2.245,-2.43 -4.761,-4.165 -7.821,-4.938 -5.861,-1.481 -11.659,-1.294 -17.231,1.184 -4.425,1.967 -7.071,5.419 -7.578,10.287 -0.571,5.478 0.817,10.247 5.527,13.596 3.245,2.308 7.024,3.165 10.868,3.79 5.947,0.968 11.908,1.852 17.836,2.927 2.52,0.457 3.445,1.708 3.21,3.835 -0.063,0.572 -0.528,1.377 -1.013,1.575 -1.932,0.791 -3.974,0.963 -5.931,0.068 -1.668,-0.763 -2.352,-2.309 -2.721,-4.071" /></g><g
           transform="translate(142.9517,319.6211)"
           id="g52"><path
             id="path54"
             style="fill:#231f20;fill-opacity:1;fill-rule:evenodd;stroke:none"
             d="m 0,0 c 4.469,0 8.809,-0.018 13.147,0.038 0.304,0.004 0.776,0.504 0.873,0.855 0.73,2.651 -0.885,5.228 -3.569,5.796 C 6.125,7.606 1.648,4.811 0,0 m 33.016,-8.438 h -1.533 c -10.76,0 -21.52,-0.023 -32.279,0.035 -1.141,0.006 -1.504,-0.461 -1.55,-1.395 -0.053,-1.115 -0.135,-2.248 0.003,-3.348 0.33,-2.638 2.238,-4.27 5.007,-4.426 3.396,-0.192 5.725,1.468 7.261,4.338 0.479,0.895 1,1.203 2.026,1.193 6.199,-0.059 12.4,-0.029 18.599,-0.029 h 1.468 c -0.963,-2.73 -2.127,-5.201 -3.809,-7.401 -5.627,-7.365 -13.193,-10.972 -22.346,-11.575 -3.898,-0.257 -7.753,-0.122 -11.548,0.817 -10.211,2.522 -15.813,10.119 -15.73,21.041 0.117,15.339 10.454,26.045 25.248,28.326 4.985,0.769 9.962,0.73 14.888,-0.465 8.697,-2.111 14.008,-8.312 14.897,-17.221 0.328,-3.298 0.148,-6.535 -0.602,-9.89" /></g><g
           transform="translate(359.0801,310.7109)"
           id="g56"><path
             id="path58"
             style="fill:#231f20;fill-opacity:1;fill-rule:evenodd;stroke:none"
             d="m 0,0 c -0.798,-9.426 -7.618,-17.762 -17.061,-20.669 -7.026,-2.163 -14.162,-2.336 -21.287,-0.489 -8.801,2.281 -14.182,8.226 -15.066,17.271 -0.97,9.929 1.808,18.701 9.489,25.464 4.723,4.158 10.479,6.02 16.632,6.701 4.745,0.526 9.506,0.61 14.195,-0.493 C -5.51,25.999 -0.883,21.189 0.918,13.668 1.274,12.182 1.241,10.602 1.396,8.975 h -20.01 c 0,0.295 -0.026,0.563 0.004,0.824 0.486,4.298 -3.188,6.042 -6.217,5.66 -1.913,-0.241 -3.507,-1.14 -4.785,-2.519 -4.048,-4.364 -5.411,-9.62 -4.676,-15.403 0.376,-2.964 2.316,-4.825 4.846,-5.262 3.129,-0.541 5.953,0.604 7.406,3.207 0.67,1.202 0.984,2.599 1.522,3.88 0.134,0.317 0.514,0.757 0.783,0.758 6.516,0.026 13.033,0.001 19.549,-0.017 C -0.147,0.103 -0.112,0.065 0,0" /></g><g
           transform="translate(679.3154,319.6855)"
           id="g60"><path
             id="path62"
             style="fill:#231f20;fill-opacity:1;fill-rule:evenodd;stroke:none"
             d="m 0,0 h -19.762 c -0.029,0.177 -0.086,0.3 -0.062,0.405 1.003,4.422 -3.295,7.083 -7.366,5.815 -2.202,-0.685 -3.821,-2.163 -5.072,-4.022 -2.737,-4.068 -3.847,-8.574 -3.21,-13.438 0.348,-2.655 1.744,-4.64 4.451,-5.378 2.794,-0.761 5.877,0.2 7.37,2.48 0.853,1.305 1.325,2.871 1.884,4.352 0.211,0.56 0.292,0.987 1.062,0.983 6.359,-0.032 12.718,-0.021 19.076,-0.027 0.115,0 0.231,-0.045 0.555,-0.113 -0.144,-0.801 -0.251,-1.607 -0.434,-2.395 -2.389,-10.328 -9.022,-16.49 -19.11,-18.952 -6.783,-1.655 -13.64,-1.569 -20.351,0.6 -8.366,2.703 -13.344,9.329 -13.736,18.125 -0.347,7.786 1.526,14.904 6.503,21.022 4.138,5.086 9.65,7.929 15.973,9.217 6.25,1.273 12.552,1.528 18.784,-0.082 C -5.03,16.418 0.317,9.19 0.091,0.523 0.087,0.371 0.04,0.219 0,0" /></g><g
           transform="translate(211.3076,328.2183)"
           id="g64"><path
             id="path66"
             style="fill:#231f20;fill-opacity:1;fill-rule:evenodd;stroke:none"
             d="m 0,0 h -7.897 c -0.516,-2.437 -1.031,-4.81 -1.518,-7.188 -0.887,-4.337 -1.822,-8.665 -2.613,-13.02 -0.495,-2.722 0.948,-4.327 3.71,-4.286 1.217,0.018 2.432,0.227 3.793,0.364 -0.484,-2.323 -0.957,-4.609 -1.438,-6.893 -0.46,-2.187 -0.907,-4.378 -1.418,-6.554 -0.079,-0.337 -0.429,-0.81 -0.722,-0.867 -6.263,-1.203 -12.555,-1.954 -18.904,-0.681 -1.086,0.218 -2.168,0.574 -3.179,1.03 -3.378,1.524 -5.21,4.255 -4.943,7.892 0.256,3.481 1.002,6.938 1.709,10.37 1.318,6.407 2.766,12.788 4.156,19.181 0.033,0.152 0.019,0.315 0.035,0.61 h -5.785 c 0.546,2.484 1.038,4.802 1.566,7.111 0.574,2.51 0.589,2.506 3.154,2.506 h 2.995 c 1.049,4.857 2.09,9.676 3.141,14.543 H -2.946 C -3.948,19.255 -4.934,14.474 -5.942,9.579 H 2.042 C 1.353,6.343 0.69,3.236 0,0" /></g><g
           transform="translate(391.8853,352.2598)"
           id="g68"><path
             id="path70"
             style="fill:#231f20;fill-opacity:1;fill-rule:evenodd;stroke:none"
             d="m 0,0 c -0.998,-4.818 -1.984,-9.576 -3.003,-14.491 h 7.867 c -0.68,-3.224 -1.323,-6.269 -2.014,-9.541 -2.337,0 -4.608,-0.011 -6.879,0.008 -0.581,0.005 -0.943,-0.072 -1.086,-0.77 -1.277,-6.214 -2.598,-12.419 -3.889,-18.63 -0.114,-0.543 -0.145,-1.112 -0.145,-1.668 -0.002,-2.102 1.201,-3.401 3.316,-3.432 1.303,-0.02 2.609,0.17 4.086,0.279 -0.098,-0.729 -0.156,-1.5 -0.312,-2.251 -0.752,-3.635 -1.556,-7.258 -2.277,-10.898 -0.16,-0.805 -0.519,-1.107 -1.294,-1.246 -5.132,-0.917 -10.287,-1.476 -15.5,-1 -2.721,0.248 -5.379,0.796 -7.684,2.408 -2.186,1.528 -3.22,3.675 -3.398,6.3 -0.213,3.128 0.659,6.096 1.301,9.096 1.503,7.024 3.038,14.041 4.558,21.062 0.041,0.191 0.064,0.387 0.118,0.72 h -5.813 c 0.715,3.262 1.394,6.361 2.095,9.561 h 5.59 c 0.67,3.076 1.325,6.065 1.971,9.056 0.338,1.561 0.685,3.121 0.979,4.691 0.112,0.602 0.315,0.9 0.994,0.897 C -13.741,0.126 -7.062,0.13 -0.384,0.122 -0.309,0.122 -0.233,0.076 0,0" /></g><g
           transform="translate(228.793,289.9717)"
           id="g72"><path
             id="path74"
             style="fill:#231f20;fill-opacity:1;fill-rule:evenodd;stroke:none"
             d="m 0,0 h -21.418 c 3.406,15.983 6.793,31.876 10.179,47.765 H 7.38 v -6.604 c 0.1,-0.085 0.199,-0.171 0.298,-0.256 3.842,5.701 8.91,8.601 16.028,7.323 -1.322,-6.302 -2.62,-12.491 -3.874,-18.471 -2.109,0.083 -4.118,0.451 -6.035,0.178 C 9.604,29.339 6.918,26.525 5.448,22.803 4.286,19.861 3.693,16.681 2.983,13.576 2.015,9.337 1.178,5.067 0.277,0.813 0.221,0.544 0.1,0.289 0,0" /></g><g
           transform="translate(317.3159,335.293)"
           id="g76"><path
             id="path78"
             style="fill:#231f20;fill-opacity:1;fill-rule:evenodd;stroke:none"
             d="m 0,0 c -1.571,-1.471 -3.033,-2.865 -4.535,-4.214 -0.177,-0.16 -0.589,-0.134 -0.872,-0.085 -1.963,0.337 -3.965,0.555 -5.864,1.115 -1.129,0.333 -2.267,1.05 -3.103,1.89 -3.306,3.323 -7.416,4.855 -11.915,5.202 -6.367,0.492 -12.769,0.52 -19.134,1.028 -2.793,0.222 -5.538,1.104 -8.29,1.75 -23.047,5.401 -46.097,10.79 -69.131,16.241 -14.169,3.354 -28.3,6.874 -42.473,10.21 -21.063,4.957 -42.149,9.818 -63.225,14.721 -0.384,0.089 -0.763,0.195 -1.237,0.317 0.613,0.97 1.185,1.873 1.784,2.819 C -152.001,33.998 -76.051,17.01 0,0" /></g><g
           transform="translate(613.2002,254.0176)"
           id="g80"><path
             id="path82"
             style="fill:#231f20;fill-opacity:1;fill-rule:evenodd;stroke:none"
             d="m 0,0 c 2.44,-0.516 4.882,-1.028 7.32,-1.549 14.06,-3.005 28.118,-6.012 42.176,-9.016 14.76,-3.156 29.52,-6.309 44.278,-9.465 1.558,-0.333 3.126,-1.002 4.666,-0.94 2.155,0.086 4.321,0.588 6.414,1.158 1.114,0.303 2.17,1.013 3.108,1.729 3.044,2.322 3.026,5.626 2.788,8.892 0.721,-0.879 0.938,-2.676 0.686,-4.687 -0.543,-4.322 -3.486,-6.268 -7.244,-7.328 -2.595,-0.732 -5.188,-0.758 -7.913,-0.169 C 64.938,-14.598 33.574,-7.923 2.22,-1.204 1.415,-1.031 0.649,-0.678 -0.135,-0.408 -0.09,-0.272 -0.045,-0.136 0,0" /></g><g
           transform="translate(251.2856,320.2236)"
           id="g84"><path
             id="path86"
             style="fill:#231f20;fill-opacity:1;fill-rule:evenodd;stroke:none"
             d="M 0,0 H 6.15 C 6.165,-0.076 6.179,-0.152 6.193,-0.228 4.828,-0.455 3.469,-0.736 2.096,-0.888 1.333,-0.973 0.776,-1.113 0.347,-1.867 c -0.81,-1.421 -2.89,-2.214 -4.479,-1.861 -3.81,0.847 -7.232,-0.675 -9.314,-4.293 -0.669,-1.162 -1.222,-2.455 -1.517,-3.758 -1.434,-6.353 -2.777,-12.727 -4.121,-19.1 -0.405,-1.92 -1.381,-2.783 -3.572,-2.799 -4.677,-0.035 -9.356,-0.064 -14.033,0.002 -2.625,0.038 -5.247,0.286 -7.872,0.403 -0.42,0.018 -0.853,-0.141 -1.274,-0.239 -7.317,-1.693 -14.673,-2.377 -22.083,-0.677 -1.991,0.457 -3.794,1.413 -5.23,2.621 1.773,-0.636 3.641,-1.624 5.617,-1.939 3.015,-0.479 6.116,-0.764 9.16,-0.635 3.644,0.156 7.289,0.71 10.887,1.352 1.351,0.24 2.541,0.498 3.903,0.061 0.835,-0.268 1.823,-0.06 2.742,-0.06 5.757,-10e-4 11.515,-0.003 17.273,0 2.648,0.002 3.438,0.868 3.873,3.487 0.495,2.982 1.258,5.918 1.906,8.874 0.714,3.266 1.392,6.539 2.155,9.793 0.712,3.038 2.342,5.468 5.038,7.124 1.907,1.172 3.972,1.145 6.025,0.625 2.837,-0.718 3.638,-0.319 4.376,2.459 C -0.163,-0.313 -0.096,-0.208 0,0" /></g><g
           transform="translate(471.3984,342.9248)"
           id="g88"><path
             id="path90"
             style="fill:#231f20;fill-opacity:1;fill-rule:evenodd;stroke:none"
             d="m 0,0 c -15.283,9.605 -30.346,10.185 -44.986,-0.298 -12.872,-9.217 -18.547,-25.482 -13.535,-41.604 -5.081,11.303 -2.908,29.542 10.76,40.959 C -31.114,12.962 -11.532,9.199 0,0" /></g><g
           transform="translate(197.416,354.5898)"
           id="g92"><path
             id="path94"
             style="fill:#231f20;fill-opacity:1;fill-rule:evenodd;stroke:none"
             d="m 0,0 c -1.761,0.398 -3.525,0.782 -5.281,1.198 -1.05,0.248 -2.082,0.57 -3.132,0.814 -29.332,6.833 -58.665,13.661 -87.998,20.488 -4.012,0.934 -8.031,1.842 -12.037,2.8 -0.817,0.196 -1.594,0.561 -2.317,1.07 C -73.777,17.812 -36.722,9.625 0.13,0.572 0.087,0.382 0.043,0.191 0,0" /></g><g
           transform="translate(568.5459,208.3428)"
           id="g96"><path
             id="path98"
             style="fill:#231f20;fill-opacity:1;fill-rule:evenodd;stroke:none"
             d="m 0,0 c 0.169,-0.47 0.3,-0.83 0.435,-1.204 -1.203,-1.009 -2.495,-1.206 -4.019,-0.793 -8.141,2.204 -16.297,4.35 -24.448,6.513 -2.346,0.622 -4.684,1.288 -7.052,1.81 -0.483,0.108 -1.316,-0.173 -1.604,-0.559 -2.002,-2.699 -4.755,-4.24 -7.858,-5.209 -0.787,-0.246 -1.756,-0.198 -2.573,0 -1.94,0.468 -3.907,0.943 -5.739,1.713 -3.407,1.43 -6.851,1.168 -10.227,0.296 -2.323,-0.599 -4.471,-0.525 -6.696,0.143 -1.032,0.31 -2.104,0.49 -3.138,0.796 -0.543,0.161 -1.045,0.465 -1.565,0.703 0.039,0.11 0.079,0.221 0.118,0.331 2.103,-0.502 4.198,-1.049 6.316,-1.481 0.747,-0.153 1.567,-0.119 2.327,-0.005 2.597,0.389 5.178,0.871 7.774,1.265 0.403,0.062 0.857,-0.117 1.271,-0.24 2.976,-0.886 5.939,-1.818 8.928,-2.656 0.689,-0.194 1.536,-0.29 2.189,-0.07 3.326,1.116 6.455,2.569 8.363,5.775 0.121,0.202 0.494,0.283 0.767,0.355 0.127,0.034 0.294,-0.102 0.448,-0.143 10.601,-2.819 21.21,-5.614 31.799,-8.481 C -2.515,-1.593 -1.215,-1.193 0,0" /></g><g
           transform="translate(92.8354,309.1797)"
           id="g100"><path
             id="path102"
             style="fill:#231f20;fill-opacity:1;fill-rule:evenodd;stroke:none"
             d="m 0,0 c -2.208,0.095 -4.146,0.171 -6.084,0.266 -1.019,0.05 -1.546,-0.44 -1.747,-1.414 -1.01,-4.894 -2.032,-9.786 -3.06,-14.676 -0.321,-1.526 -0.647,-3.052 -1.021,-4.565 -0.309,-1.253 -1.136,-1.991 -2.431,-2.161 -0.395,-0.053 -0.796,-0.093 -1.194,-0.094 -6.639,-0.004 -13.278,-0.024 -19.917,0.02 -0.932,0.006 -1.861,0.325 -2.793,0.499 0.024,0.161 0.048,0.322 0.071,0.482 0.474,-0.035 0.948,-0.102 1.423,-0.103 6.959,-0.005 13.918,-0.014 20.877,0.008 2.134,0.007 2.96,0.772 3.409,2.896 1.341,6.347 2.709,12.688 4.034,19.037 0.158,0.758 0.441,1.099 1.251,1.023 C -5.285,1.039 -3.378,0.951 -1.485,0.741 -1.025,0.69 -0.602,0.312 0,0" /></g><g
           transform="translate(437.7881,257.6689)"
           id="g104"><path
             id="path106"
             style="fill:#231f20;fill-opacity:1;fill-rule:evenodd;stroke:none"
             d="m 0,0 c 6.93,-0.185 13.86,-0.349 20.789,-0.561 8.828,-0.269 17.655,-0.578 26.483,-0.868 0.679,-0.022 1.359,-0.04 2.039,-0.046 2.275,-0.02 3.189,0.748 3.534,2.959 0.937,-1.38 0.485,-3.021 -1.07,-3.554 C 51.077,-2.31 50.283,-2.378 49.538,-2.356 38.15,-2.021 26.764,-1.65 15.376,-1.307 11.102,-1.177 6.824,-1.125 2.55,-0.965 1.663,-0.932 0.789,-0.577 -0.091,-0.37 -0.061,-0.247 -0.03,-0.123 0,0" /></g><g
           transform="translate(210.7876,351.9199)"
           id="g108"><path
             id="path110"
             style="fill:#231f20;fill-opacity:1;fill-rule:evenodd;stroke:none"
             d="m 0,0 c 17.21,-4.042 34.283,-8.052 51.357,-12.062 -0.005,-0.099 -0.01,-0.198 -0.014,-0.297 -0.622,0 -1.273,-0.12 -1.863,0.018 C 37.563,-9.567 25.651,-6.764 13.739,-3.967 9.963,-3.081 6.187,-2.194 2.41,-1.311 0.897,-0.958 0.608,-1.148 0.287,-2.7 c -0.551,-2.662 -1.082,-5.328 -1.664,-7.983 -0.086,-0.391 -0.408,-0.731 -0.621,-1.094 l -0.396,0.189 C -1.601,-7.752 -0.809,-3.916 0,0" /></g><g
           transform="translate(127.8975,290.8945)"
           id="g112"><path
             id="path114"
             style="fill:#231f20;fill-opacity:1;fill-rule:evenodd;stroke:none"
             d="m 0,0 c 7.501,-5.119 15.884,-5.591 24.437,-4.419 8.765,1.2 15.874,5.475 21.148,12.703 C 45.717,8.197 45.849,8.11 45.98,8.024 45.622,7.212 45.426,6.265 44.88,5.608 39.031,-1.416 31.42,-4.951 22.38,-5.641 16.238,-6.108 10.221,-5.723 4.558,-3.049 2.923,-2.277 1.415,-1.236 -0.15,-0.319 -0.101,-0.213 -0.05,-0.106 0,0" /></g><g
           transform="translate(357.3882,297.8115)"
           id="g116"><path
             id="path118"
             style="fill:#231f20;fill-opacity:1;fill-rule:evenodd;stroke:none"
             d="m 0,0 c -0.261,-0.677 -0.375,-1.47 -0.804,-2.013 -4.933,-6.234 -11.536,-9.417 -19.309,-10.381 -7.166,-0.888 -14.213,-0.615 -20.9,2.479 -1.498,0.693 -2.882,1.634 -4.237,2.611 2.849,-1.704 5.885,-2.926 9.103,-3.648 4.992,-1.12 10.028,-1.136 15.105,-0.581 3.455,0.378 6.75,1.307 9.854,2.742 3.84,1.774 7.167,4.322 9.746,7.749 0.324,0.43 0.691,0.827 1.038,1.239 C -0.269,0.132 -0.135,0.065 0,0" /></g><g
           transform="translate(673.9668,295.4678)"
           id="g120"><path
             id="path122"
             style="fill:#231f20;fill-opacity:1;fill-rule:evenodd;stroke:none"
             d="m 0,0 c -0.013,-1.662 -0.872,-2.598 -1.914,-3.472 -4.652,-3.903 -10.065,-5.944 -16.041,-6.631 -7.01,-0.804 -13.901,-0.511 -20.441,2.461 -1.655,0.753 -3.174,1.8 -4.688,2.874 6.854,-4.379 14.439,-5.191 22.273,-4.644 C -12.783,-8.853 -5.646,-6.187 0,0" /></g><g
           transform="translate(596.2197,290.3389)"
           id="g124"><path
             id="path126"
             style="fill:#231f20;fill-opacity:1;fill-rule:evenodd;stroke:none"
             d="m 0,0 c 0.267,-0.379 0.486,-0.69 0.701,-0.994 -4.27,-3.043 -9,-4.105 -14.093,-4.003 -3.887,0.077 -7.637,0.684 -11.166,2.368 -0.861,0.411 -1.688,0.909 -2.487,1.434 -0.794,0.52 -1.293,0.538 -1.511,-0.541 -0.223,-1.104 -0.976,-1.844 -2.057,-1.895 -4.136,-0.192 -8.285,-0.443 -12.339,0.846 1.678,0 3.355,0.015 5.033,-0.005 1.676,-0.02 3.351,-0.093 5.026,-0.106 0.553,-0.003 1.117,0.057 1.657,0.173 1.627,0.353 2.093,1.091 2.093,3.367 4.294,-3.419 9.258,-4.558 14.522,-4.71 C -9.362,-4.22 -4.374,-3.332 0,0" /></g><g
           transform="translate(479.2148,308.832)"
           id="g128"><path
             id="path130"
             style="fill:#231f20;fill-opacity:1;fill-rule:evenodd;stroke:none"
             d="m 0,0 c 0.038,-0.728 0.209,-1.479 0.091,-2.181 -0.357,-2.127 -0.82,-4.235 -1.25,-6.349 -0.655,-3.211 -1.333,-6.417 -1.972,-9.631 -0.324,-1.634 -1.173,-2.643 -2.904,-2.865 -5.315,-0.682 -10.631,-1.402 -16.004,-0.895 -1.461,0.139 -2.923,0.479 -4.33,0.902 -0.882,0.266 -1.664,0.862 -2.441,1.406 3.674,-1.507 7.51,-1.784 11.373,-1.527 3.697,0.246 7.375,0.753 11.064,1.116 1.417,0.138 2.175,0.999 2.442,2.26 1.106,5.212 2.157,10.436 3.22,15.657 0.142,0.696 0.241,1.4 0.36,2.101 C -0.233,-0.004 -0.117,-0.002 0,0" /></g><g
           transform="translate(392.6313,303.0439)"
           id="g132"><path
             id="path134"
             style="fill:#231f20;fill-opacity:1;fill-rule:evenodd;stroke:none"
             d="m 0,0 c 0.797,-1.731 0.17,-3.412 -0.202,-5.118 -0.621,-2.852 -1.227,-5.707 -1.782,-8.571 -0.347,-1.789 -1.292,-2.737 -3.15,-3.07 -5.978,-1.069 -11.962,-1.597 -18.016,-0.812 -2.825,0.366 -5.379,1.369 -7.679,3.041 1.918,-0.637 3.775,-1.419 5.71,-1.863 4.092,-0.937 8.254,-0.823 12.398,-0.365 2.487,0.275 4.951,0.746 7.435,1.066 1.329,0.171 2.111,0.847 2.387,2.136 0.632,2.957 1.257,5.915 1.888,8.872 C -0.679,-3.131 -0.341,-1.578 0,0" /></g><g
           transform="translate(610.4766,257.04)"
           id="g136"><path
             id="path138"
             style="fill:#231f20;fill-opacity:1;fill-rule:evenodd;stroke:none"
             d="m 0,0 c -0.777,0.153 -1.555,0.304 -2.331,0.459 -5.993,1.203 -11.99,2.39 -17.977,3.626 -1.105,0.227 -2.031,0.139 -2.866,-0.68 -0.972,-0.953 -2.152,-1.103 -3.451,-0.824 -6.327,1.359 -12.662,2.69 -18.987,4.061 -0.616,0.133 -1.184,0.48 -1.775,0.728 0.043,0.115 0.085,0.231 0.128,0.347 3.127,-0.662 6.255,-1.321 9.381,-1.986 3.542,-0.752 7.093,-1.472 10.62,-2.287 1.34,-0.308 2.462,-0.082 3.376,0.897 0.801,0.856 1.626,0.922 2.757,0.682 6.542,-1.38 13.107,-2.652 19.661,-3.98 C -0.889,0.927 -0.342,0.669 0.219,0.478 0.146,0.318 0.072,0.159 0,0" /></g><g
           transform="translate(702.3271,301.0039)"
           id="g140"><path
             id="path142"
             style="fill:#231f20;fill-opacity:1;fill-rule:evenodd;stroke:none"
             d="m 0,0 c 0,-0.789 0.13,-1.605 -0.022,-2.364 -0.641,-3.171 -1.384,-6.32 -2.053,-9.485 -0.349,-1.651 -0.93,-2.269 -2.571,-2.529 -0.277,-0.044 -0.557,-0.081 -0.834,-0.081 -6.591,-0.003 -13.182,-0.021 -19.773,0.027 -0.843,0.007 -1.684,0.375 -2.525,0.577 0.033,0.137 0.066,0.276 0.098,0.414 0.615,-0.044 1.228,-0.125 1.841,-0.126 6.431,-0.008 12.862,-0.01 19.293,0.006 0.631,0.002 1.273,0.091 1.891,0.224 1.044,0.225 1.63,0.921 1.847,1.962 0.675,3.229 1.367,6.454 2.043,9.683 0.119,0.569 0.198,1.147 0.294,1.721 C -0.313,0.02 -0.157,0.01 0,0" /></g><g
           transform="translate(597.5479,248.1289)"
           id="g144"><path
             id="path146"
             style="fill:#231f20;fill-opacity:1;fill-rule:evenodd;stroke:none"
             d="m 0,0 c 1.362,-2.602 1.527,-5.219 0.063,-7.818 -0.15,-0.268 -0.391,-0.536 -0.658,-0.679 -3.227,-1.724 -6.33,-3.607 -10.2,-3.847 -4.179,-0.26 -8.328,-1.001 -12.487,-1.55 -1.648,-0.216 -1.666,-0.278 -1.655,-1.961 0.002,-0.392 -0.101,-0.785 -0.156,-1.177 -0.105,0.007 -0.211,0.012 -0.317,0.018 -0.102,1.193 -0.203,2.385 -0.324,3.794 1.469,0.199 3.064,0.39 4.651,0.635 5.035,0.777 10.077,1.524 15.092,2.417 0.778,0.138 1.415,1.003 2.148,1.483 0.404,0.265 0.856,0.548 1.317,0.615 1.323,0.189 2.073,0.916 2.373,2.181 0.236,1 0.652,1.993 0.682,2.997 C 0.559,-1.934 0.192,-0.965 0,0" /></g><g
           transform="translate(305.5742,297.9912)"
           id="g148"><path
             id="path150"
             style="fill:#231f20;fill-opacity:1;fill-rule:evenodd;stroke:none"
             d="m 0,0 c 0.774,-0.8 0.785,-1.402 0.508,-2.294 -0.543,-1.746 -0.779,-3.587 -1.148,-5.388 -0.555,-2.708 -1.061,-3.234 -3.811,-3.677 -5.663,-0.914 -11.355,-1.381 -17.072,-0.638 -2.023,0.263 -3.887,1.053 -5.372,2.549 2.487,-1.433 5.179,-1.877 8.017,-1.935 4.845,-0.097 9.644,0.259 14.42,1.038 1.623,0.266 2.661,1.063 2.957,2.797 C -1.082,-5.088 -0.534,-2.65 0,0" /></g><g
           transform="translate(625.1631,297.8213)"
           id="g152"><path
             id="path154"
             style="fill:#231f20;fill-opacity:1;fill-rule:evenodd;stroke:none"
             d="m 0,0 c 0,-0.673 0.108,-1.368 -0.02,-2.016 -0.441,-2.235 -0.974,-4.452 -1.455,-6.678 -0.265,-1.228 -0.984,-1.989 -2.215,-2.231 -6.038,-1.187 -12.118,-1.633 -18.243,-0.911 -1.924,0.227 -3.704,0.94 -5.166,2.308 4.887,-2.373 10.056,-1.8 15.181,-1.417 2.576,0.192 5.135,0.629 7.696,0.986 1.17,0.163 1.798,0.904 2.038,2.049 0.555,2.641 1.143,5.277 1.716,7.915 C -0.312,0.004 -0.156,0.002 0,0" /></g><g
           transform="translate(740.5,337.6997)"
           id="g156"><path
             id="path158"
             style="fill:#231f20;fill-opacity:1;fill-rule:evenodd;stroke:none"
             d="m 0,0 c 0.54,-1.282 0.331,-2.154 -0.855,-3.252 -3.311,-3.064 -6.635,-6.115 -9.954,-9.171 -2.172,-2.001 -4.353,-3.994 -6.508,-6.014 -0.396,-0.371 -0.685,-0.856 -1.102,-1.39 -0.214,0.434 -0.432,0.875 -0.665,1.348 3.645,3.354 7.256,6.678 10.867,10.002 2.32,2.135 4.67,4.239 6.939,6.428 C -0.716,-1.506 -0.417,-0.688 0,0" /></g><g
           transform="translate(481.1514,267.8281)"
           id="g160"><path
             id="path162"
             style="fill:#231f20;fill-opacity:1;fill-rule:evenodd;stroke:none"
             d="M 0,0 C 7.545,5.47 13.396,12.292 17.529,20.693 17.868,20.418 18.153,20.187 18.358,20.02 17.965,19.472 17.494,19.01 17.251,18.449 14.11,11.229 8.894,5.7 2.937,0.767 2.537,0.436 2.11,0.137 1.708,-0.189 0.931,-0.819 0.934,-0.823 0,0" /></g><g
           transform="translate(440.207,275.0322)"
           id="g164"><path
             id="path166"
             style="fill:#231f20;fill-opacity:1;fill-rule:evenodd;stroke:none"
             d="m 0,0 c 0.63,-1.109 0.419,-2.244 0.014,-3.344 -1.2,-3.261 -2.441,-6.507 -3.659,-9.761 -0.166,-0.446 -0.315,-0.901 -0.427,-1.362 -0.375,-1.531 -1.899,-2.517 -3.403,-1.988 -5.132,1.808 -10.17,3.837 -14.703,6.925 -1.141,0.776 -2.278,1.56 -3.338,2.455 2.333,-1.393 4.581,-2.962 7.021,-4.135 3.402,-1.636 6.93,-3.02 10.441,-4.417 1.257,-0.501 2.847,0.56 3.306,1.872 1.235,3.533 2.532,7.045 3.778,10.574 C -0.604,-2.147 -0.327,-1.083 0,0" /></g><g
           transform="translate(498.7178,280.1338)"
           id="g168"><path
             id="path170"
             style="fill:#231f20;fill-opacity:1;fill-rule:evenodd;stroke:none"
             d="m 0,0 c 3.708,-0.859 7.41,-1.744 11.126,-2.571 4.3,-0.957 8.715,-1.543 12.885,-2.893 3.465,-1.121 7.01,-1.696 10.504,-2.578 0.834,-0.211 1.881,0.09 2.396,-1.402 -4.074,1.008 -7.935,1.969 -11.8,2.921 -0.852,0.21 -1.715,0.38 -2.57,0.579 -6.854,1.583 -13.71,3.16 -20.558,4.766 -0.73,0.172 -1.418,0.523 -2.126,0.79 C -0.095,-0.259 -0.048,-0.129 0,0" /></g><g
           transform="translate(95.1592,287.4336)"
           id="g172"><path
             id="path174"
             style="fill:#231f20;fill-opacity:1;fill-rule:evenodd;stroke:none"
             d="m 0,0 h 22.544 c 0.32,0 0.64,-0.011 0.959,0.004 2.196,0.097 3.006,0.826 3.304,2.965 0.954,-1.282 0.572,-2.918 -0.91,-3.475 C 25.17,-0.779 24.339,-0.883 23.555,-0.887 16.682,-0.914 9.81,-0.913 2.937,-0.891 1.903,-0.888 0.785,-0.986 0,0" /></g><g
           transform="translate(708.0225,287.5684)"
           id="g176"><path
             id="path178"
             style="fill:#231f20;fill-opacity:1;fill-rule:evenodd;stroke:none"
             d="m 0,0 c 0.572,-0.046 1.144,-0.132 1.717,-0.132 7.03,-0.009 14.061,-0.011 21.093,0.001 2.119,0.003 3.058,0.65 3.321,2.324 0.088,0.556 -0.047,1.148 -0.069,1.542 0.699,-0.898 0.959,-2.281 0.503,-3.272 -0.553,-1.204 -1.651,-1.467 -2.8,-1.471 C 16.614,-1.03 9.464,-1.038 2.313,-0.99 1.508,-0.984 0.705,-0.602 -0.099,-0.395 -0.065,-0.263 -0.033,-0.132 0,0" /></g><g
           transform="translate(525.0693,288.1416)"
           id="g180"><path
             id="path182"
             style="fill:#231f20;fill-opacity:1;fill-rule:evenodd;stroke:none"
             d="m 0,0 c 1.639,7.456 3.256,14.815 4.895,22.273 2.731,-0.247 5.584,0.621 8.038,-1.279 C 10.966,21.1 9.079,21.189 7.194,21.308 6.04,21.38 5.461,20.893 5.217,19.732 3.89,13.44 2.499,7.162 1.154,0.873 0.995,0.126 0.651,-0.16 0,0" /></g><g
           transform="translate(586.9727,221.9639)"
           id="g184"><path
             id="path186"
             style="fill:#231f20;fill-opacity:1;fill-rule:evenodd;stroke:none"
             d="m 0,0 c 0.195,-0.638 0.38,-1.065 0.455,-1.511 0.725,-4.296 -0.127,-8.333 -2.506,-11.912 -1.054,-1.588 -2.674,-2.831 -4.161,-4.082 -0.474,-0.398 -1.38,-0.522 -2.034,-0.421 -2.407,0.376 -4.797,0.878 -7.183,1.382 -0.511,0.108 -0.979,0.419 -1.467,0.637 0.034,0.108 0.067,0.217 0.101,0.325 1.598,-0.291 3.196,-0.577 4.793,-0.874 0.939,-0.176 1.877,-0.518 2.814,-0.512 0.893,0.007 1.945,0.132 2.649,0.613 3.902,2.661 5.799,6.6 6.499,11.128 C 0.211,-3.604 0,-1.912 0,0" /></g><g
           transform="translate(420.9189,290.7832)"
           id="g188"><path
             id="path190"
             style="fill:#231f20;fill-opacity:1;fill-rule:evenodd;stroke:none"
             d="m 0,0 c 5.516,-3.106 11.458,-3.895 17.651,-3.16 3.232,0.383 6.344,1.24 9.017,3.204 0.853,0.626 1.262,0.385 1.61,-0.445 C 18.937,-6.975 4.454,-4.264 0,0" /></g><g
           transform="translate(277.2876,290.124)"
           id="g192"><path
             id="path194"
             style="fill:#231f20;fill-opacity:1;fill-rule:evenodd;stroke:none"
             d="M 0,0 C 0.128,-0.196 0.323,-0.493 0.515,-0.788 -7.018,-6.794 -22.308,-5.566 -27.734,-0.519 -18.637,-4.949 -9.383,-5.461 0,0" /></g><g
           transform="translate(201.8633,306.3877)"
           id="g196"><path
             id="path198"
             style="fill:#231f20;fill-opacity:1;fill-rule:evenodd;stroke:none"
             d="m 0,0 c -0.051,0.43 -0.208,0.878 -0.137,1.287 0.389,2.232 0.809,4.46 1.264,6.68 0.773,3.777 1.58,7.547 2.403,11.465 h 6.986 C 10.622,18.678 10.145,18.429 9.35,18.44 8.152,18.458 6.952,18.406 5.755,18.446 4.698,18.482 4.121,18.033 3.91,16.996 2.791,11.479 1.652,5.966 0.517,0.452 0.487,0.309 0.423,0.173 0.375,0.033 0.25,0.022 0.125,0.011 0,0" /></g><g
           transform="translate(561.8594,265.5527)"
           id="g200"><path
             id="path202"
             style="fill:#231f20;fill-opacity:1;fill-rule:evenodd;stroke:none"
             d="m 0,0 c -1.735,-0.406 -3.359,-0.843 -5.006,-1.153 -1.206,-0.227 -1.826,-0.829 -2.186,-2.031 -1.487,-4.96 -1.672,-9.987 -1.021,-15.082 0.046,-0.36 0.063,-0.723 0.092,-1.086 -0.133,-0.02 -0.267,-0.041 -0.4,-0.06 -0.13,0.766 -0.292,1.53 -0.386,2.302 -0.646,5.29 -0.406,10.508 1.25,15.62 0.189,0.584 0.395,0.919 1.073,1.052 1.836,0.358 3.656,0.807 5.467,1.283 C -0.387,1.037 -0.068,0.839 0,0" /></g><g
           transform="translate(393.1084,325.3745)"
           id="g204"><path
             id="path206"
             style="fill:#231f20;fill-opacity:1;fill-rule:evenodd;stroke:none"
             d="m 0,0 c -0.441,-0.168 -0.884,-0.485 -1.324,-0.481 -2.377,0.02 -2.326,-0.496 -2.749,-2.585 -1.045,-5.164 -2.099,-10.326 -3.157,-15.486 -0.028,-0.138 -0.13,-0.26 -0.198,-0.389 -0.112,-0.001 -0.223,-0.002 -0.335,-0.002 -0.026,0.572 -0.171,1.168 -0.061,1.712 0.927,4.595 1.904,9.18 2.857,13.771 0.217,1.049 0.376,2.111 0.613,3.156 0.059,0.255 0.315,0.651 0.496,0.66 1.223,0.059 2.45,0.031 3.676,0.031 z" /></g><g
           transform="translate(337.6377,322.541)"
           id="g208"><path
             id="path210"
             style="fill:#231f20;fill-opacity:1;fill-rule:evenodd;stroke:none"
             d="m 0,0 c -3.715,0.901 -5.759,-1.081 -7.383,-3.69 -2.215,-3.56 -2.85,-7.479 -2.344,-11.759 -1.011,1.509 -0.948,3.074 -0.822,4.612 0.324,3.947 1.397,7.605 4.359,10.459 1.757,1.693 4.11,2.087 5.654,0.958 C -0.396,0.477 -0.294,0.321 0,0" /></g><g
           transform="translate(656.6494,322.8652)"
           id="g212"><path
             id="path214"
             style="fill:#231f20;fill-opacity:1;fill-rule:evenodd;stroke:none"
             d="m 0,0 c -4.008,0.155 -6.639,-1.698 -8.366,-5.962 -1.222,-3.017 -1.789,-6.114 -1.363,-9.368 -0.103,-0.017 -0.207,-0.034 -0.309,-0.051 -0.175,0.865 -0.491,1.729 -0.5,2.596 -0.042,4.226 0.963,8.147 3.784,11.422 1.299,1.508 2.896,2.556 5.022,2.147 C -1.127,0.667 -0.575,0.269 0,0" /></g><g
           transform="translate(339.5684,317.0947)"
           id="g216"><path
             id="path218"
             style="fill:#231f20;fill-opacity:1;fill-rule:evenodd;stroke:none"
             d="m 0,0 h 21.05 c 0.095,-1.027 -0.617,-0.892 -1.193,-0.893 -4.95,-0.007 -9.9,-0.005 -14.85,-0.004 -1.038,0 -2.081,-0.058 -3.111,0.036 C 1.221,-0.8 0.565,-0.516 -0.099,-0.332 -0.066,-0.222 -0.033,-0.111 0,0" /></g><g
           transform="translate(678.7021,316.71)"
           id="g220"><path
             id="path222"
             style="fill:#231f20;fill-opacity:1;fill-rule:evenodd;stroke:none"
             d="m 0,0 c -0.352,-0.169 -0.703,-0.483 -1.056,-0.485 -5.795,-0.025 -11.589,-0.024 -17.382,0.016 -0.54,0.004 -1.078,0.305 -1.616,0.469 0.023,0.106 0.045,0.212 0.068,0.318 H -0.207 C -0.138,0.212 -0.068,0.106 0,0" /></g><g
           transform="translate(708.1826,336.0986)"
           id="g224"><path
             id="path226"
             style="fill:#231f20;fill-opacity:1;fill-rule:evenodd;stroke:none"
             d="M 0,0 C 1.487,6.708 2.975,13.417 4.462,20.125 4.566,20.137 4.67,20.149 4.774,20.161 4.797,19.43 4.966,18.667 4.817,17.972 3.652,12.5 2.442,7.038 1.199,1.584 1.06,0.973 0.627,0.428 0.33,-0.147 0.221,-0.098 0.11,-0.049 0,0" /></g><g
           transform="translate(478.21,330.9727)"
           id="g228"><path
             id="path230"
             style="fill:#231f20;fill-opacity:1;fill-rule:evenodd;stroke:none"
             d="m 0,0 c 0.495,-1.174 1.002,-2.859 0.655,-4.621 -0.972,-4.932 -2.03,-9.848 -3.086,-14.764 -0.073,-0.343 -0.407,-0.63 -0.62,-0.943 -0.117,0.052 -0.234,0.103 -0.35,0.155 0.135,0.755 0.252,1.514 0.41,2.264 0.992,4.701 2.055,9.389 2.951,14.109 C 0.218,-2.442 0,-0.994 0,0" /></g><g
           transform="translate(391.9326,340.2275)"
           id="g232"><path
             id="path234"
             style="fill:#231f20;fill-opacity:1;fill-rule:evenodd;stroke:none"
             d="M 0,0 C 0.849,4.197 1.677,8.289 2.504,12.374 3.385,11.118 1.406,0.415 0,0" /></g><g
           transform="translate(143.3452,305.6377)"
           id="g236"><path
             id="path238"
             style="fill:#231f20;fill-opacity:1;fill-rule:evenodd;stroke:none"
             d="M 0,0 C -0.152,0.972 -0.304,1.943 -0.471,3.017 H 7.791 C 7.837,2.929 7.882,2.84 7.928,2.752 7.506,2.551 7.092,2.199 6.66,2.175 5.271,2.1 3.875,2.146 2.481,2.143 0.489,2.137 0.381,2.031 0.346,0.085 0.231,0.057 0.115,0.028 0,0" /></g><g
           transform="translate(127.3521,331.6626)"
           id="g240"><path
             id="path242"
             style="fill:#231f20;fill-opacity:1;fill-rule:evenodd;stroke:none"
             d="M 0,0 C 1.157,4.627 1.132,9.161 -0.047,13.708 1.575,9.759 1.915,5.694 0.98,1.542 0.854,0.983 0.336,0.512 0,0" /></g><g
           transform="translate(563.5742,319.7729)"
           id="g244"><path
             id="path246"
             style="fill:#231f20;fill-opacity:1;fill-rule:evenodd;stroke:none"
             d="M 0,0 C -0.261,0.275 -0.528,0.555 -0.802,0.844 1.046,2.181 2.804,3.453 4.591,4.746 4.565,3.544 3.981,2.677 2.948,2.025 2.01,1.432 1.113,0.769 0,0" /></g><g
           transform="translate(572.7129,345.0698)"
           id="g248"><path
             id="path250"
             style="fill:#231f20;fill-opacity:1;fill-rule:evenodd;stroke:none"
             d="M 0,0 C 1.16,-3.117 1.568,-6.331 1.207,-9.618 1.148,-10.15 0.68,-10.637 0.301,-11.109 0.993,-7.362 0.741,-3.68 0,0" /></g><g
           transform="translate(429.1621,321.3711)"
           id="g252"><path
             id="path254"
             style="fill:#231f20;fill-opacity:1;fill-rule:evenodd;stroke:none"
             d="M 0,0 C -2.493,-0.687 -5.006,-1.562 -7.537,0 Z" /></g><g
           transform="translate(504.4541,319.3198)"
           id="g256"><path
             id="path258"
             style="fill:#231f20;fill-opacity:1;fill-rule:evenodd;stroke:none"
             d="M 0,0 C -0.97,4.348 -1.938,8.696 -2.907,13.044 -1.54,8.768 -0.058,4.518 0,0" /></g><g
           transform="translate(121.145,299.9814)"
           id="g260"><path
             id="path262"
             style="fill:#231f20;fill-opacity:1;fill-rule:evenodd;stroke:none"
             d="m 0,0 c 0.053,-0.854 0.163,-1.709 0.146,-2.562 -0.033,-1.697 -0.137,-3.391 -0.215,-5.17 -1.241,2.538 -0.408,5.136 -0.38,7.684 0.15,0.017 0.3,0.032 0.449,0.048" /></g><g
           transform="translate(576.2822,320.1304)"
           id="g264"><path
             id="path266"
             style="fill:#231f20;fill-opacity:1;fill-rule:evenodd;stroke:none"
             d="M 0,0 C -2.249,-1.065 -5.323,-1.152 -6.757,0 Z" /></g><g
           transform="translate(121.7124,323.5156)"
           id="g268"><path
             id="path270"
             style="fill:#231f20;fill-opacity:1;fill-rule:evenodd;stroke:none"
             d="M 0,0 C -0.273,-2.002 -1.899,-2.638 -3.268,-3.634 -3.549,-3.415 -3.85,-3.181 -4.254,-2.865 -2.799,-1.885 -1.43,-0.963 0,0" /></g><g
           transform="translate(275.9507,323.0371)"
           id="g272"><path
             id="path274"
             style="fill:#231f20;fill-opacity:1;fill-rule:evenodd;stroke:none"
             d="M 0,0 C 0.695,1.891 1.126,2.042 4.409,1.691 4.447,1.59 4.485,1.488 4.523,1.386 3.074,0.942 1.625,0.498 0,0" /></g><g
           transform="translate(447.2461,324.1763)"
           id="g276"><path
             id="path278"
             style="fill:#231f20;fill-opacity:1;fill-rule:evenodd;stroke:none"
             d="M 0,0 C 0.915,1.956 2.154,2.354 4.539,1.367 3.081,0.927 1.623,0.488 0,0" /></g><g
           transform="translate(594.8926,322.9844)"
           id="g280"><path
             id="path282"
             style="fill:#231f20;fill-opacity:1;fill-rule:evenodd;stroke:none"
             d="M 0,0 C 1.075,2.097 1.718,2.309 4.632,1.448 3.15,0.984 1.668,0.521 0,0" /></g><g
           transform="translate(542.4053,268.3965)"
           id="g284"><path
             id="path286"
             style="fill:#231f20;fill-opacity:1;fill-rule:evenodd;stroke:none"
             d="M 0,0 C -1.909,0.964 -4.279,0.57 -6.019,2.049 -3.923,1.645 -1.694,1.659 0,0" /></g><g
           transform="translate(308.605,329.1055)"
           id="g288"><path
             id="path290"
             style="fill:#231f20;fill-opacity:1;fill-rule:evenodd;stroke:none"
             d="M 0,0 C -0.597,-0.925 -1.119,-1.733 -1.638,-2.537 -1.729,-1.645 -1.822,-0.732 -1.932,0.331 -1.177,0.201 -0.546,0.094 0,0" /></g><g
           transform="translate(255.0103,338.0576)"
           id="g292"><path
             id="path294"
             style="fill:#231f20;fill-opacity:1;fill-rule:evenodd;stroke:none"
             d="M 0,0 C 0.784,-1.658 0.555,-2.528 -0.696,-3.438 -0.453,-2.238 -0.227,-1.119 0,0" /></g><g
           transform="translate(575.8242,228.3437)"
           id="g296"><path
             id="path298"
             style="fill:#231f20;fill-opacity:1;fill-rule:evenodd;stroke:none"
             d="M 0,0 C 0.8,-1.447 0.72,-2.258 -0.521,-3.412 -0.354,-2.316 -0.186,-1.22 0,0" /></g><g
           transform="translate(625.7969,330.1807)"
           id="g300"><path
             id="path302"
             style="fill:#231f20;fill-opacity:1;fill-rule:evenodd;stroke:none"
             d="M 0,0 C 0.516,-1.433 1.199,-2.63 0.19,-4.069 0.126,-2.685 0.068,-1.455 0,0" /></g><g
           transform="translate(530.2354,249.585)"
           id="g304"><path
             id="path306"
             style="fill:#231f20;fill-opacity:1;fill-rule:evenodd;stroke:none"
             d="M 0,0 C 0.16,-1.104 0.319,-2.209 0.479,-3.313 0.317,-3.337 0.156,-3.36 -0.006,-3.383 l -0.419,3.317 C -0.283,-0.044 -0.142,-0.021 0,0" /></g><g
           transform="translate(512.6045,244.8301)"
           id="g308"><path
             id="path310"
             style="fill:#231f20;fill-opacity:1;fill-rule:evenodd;stroke:none"
             d="M 0,0 C 0.388,1.187 0.774,2.375 1.14,3.496 1.606,2.854 1.395,2.079 0,0" /></g><g
           transform="translate(90.2598,337.5078)"
           id="g312"><path
             id="path314"
             style="fill:#231f20;fill-opacity:1;fill-rule:evenodd;stroke:none"
             d="m 0,0 c 3.369,-0.321 6.78,0.527 10.288,-0.967 -2.81,0 -5.258,0.006 -7.706,-0.001 C 0.777,-0.974 0.649,-1.105 0.323,-2.857 0.125,-3.917 -0.103,-4.974 -0.383,-6.015 -0.476,-6.356 -0.775,-6.641 -0.98,-6.952 -1.108,-6.896 -1.236,-6.838 -1.365,-6.782 -0.918,-4.561 -0.471,-2.34 0,0" /></g><g
           transform="translate(534.1064,330.7573)"
           id="g316"><path
             id="path318"
             style="fill:#231f20;fill-opacity:1;fill-rule:evenodd;stroke:none"
             d="M 0,0 C 0.237,1.153 0.446,2.313 0.722,3.457 0.978,4.524 0.993,5.956 1.688,6.521 2.348,7.057 3.752,6.709 4.827,6.691 6.461,6.664 8.099,6.64 9.726,6.502 10.322,6.452 10.893,6.083 11.673,5.784 8.989,5.784 6.618,5.788 4.248,5.783 2.184,5.778 2.103,5.707 1.646,3.651 1.43,2.676 1.236,1.694 0.979,0.73 0.894,0.407 0.642,0.128 0.465,-0.17 0.31,-0.113 0.155,-0.057 0,0" /></g><g
           transform="translate(596.5879,307.4009)"
           id="g320"><path
             id="path322"
             style="fill:#231f20;fill-opacity:1;fill-rule:evenodd;stroke:none"
             d="m 0,0 c -0.521,-0.333 -1.001,-0.796 -1.57,-0.975 -1.524,-0.478 -3.112,-0.754 -4.62,-1.268 -0.831,-0.283 -1.551,-0.883 -2.511,-1.454 -0.041,0.055 -0.418,0.364 -0.362,0.523 0.157,0.459 0.393,1.059 0.771,1.239 1.109,0.528 2.28,0.962 3.468,1.28 1.529,0.409 3.098,0.67 4.651,0.995 z" /></g><g
           transform="translate(277.4575,307.3877)"
           id="g324"><path
             id="path326"
             style="fill:#231f20;fill-opacity:1;fill-rule:evenodd;stroke:none"
             d="m 0,0 c -0.514,-0.33 -0.986,-0.785 -1.548,-0.966 -1.589,-0.513 -3.23,-0.865 -4.818,-1.382 -0.617,-0.202 -1.137,-0.689 -1.715,-1.024 -0.217,-0.126 -0.471,-0.189 -0.709,-0.279 -0.074,0.284 -0.302,0.675 -0.193,0.832 0.301,0.428 0.682,0.951 1.14,1.097 2.515,0.805 5.063,1.507 7.599,2.245 C -0.163,0.349 -0.081,0.174 0,0" /></g><g
           transform="translate(448.7793,308.4082)"
           id="g328"><path
             id="path330"
             style="fill:#231f20;fill-opacity:1;fill-rule:evenodd;stroke:none"
             d="m 0,0 c -0.557,-0.332 -1.077,-0.788 -1.68,-0.97 -1.294,-0.389 -2.663,-0.543 -3.94,-0.975 -0.877,-0.297 -1.644,-0.913 -2.474,-1.359 -0.237,-0.128 -0.525,-0.159 -0.791,-0.235 -0.038,0.328 -0.23,0.814 -0.086,0.956 0.498,0.486 1.058,1.042 1.695,1.231 2.311,0.686 4.664,1.233 7.001,1.832 z" /></g><g
           transform="translate(153.8721,323.2832)"
           id="g332"><path
             id="path334"
             style="fill:#231f20;fill-opacity:1;fill-rule:evenodd;stroke:none"
             d="M 0,0 C -2.03,-0.387 -4.089,-0.779 -6.229,-1.187 -4.99,0.866 -1.209,1.407 0,0" /></g><g
           transform="translate(719.2686,344.7095)"
           id="g336"><path
             id="path338"
             style="fill:#231f20;fill-opacity:1;fill-rule:nonzero;stroke:none"
             d="m 0,0 h 0.932 c 0.445,0 0.749,0.066 0.911,0.199 0.162,0.133 0.243,0.309 0.243,0.528 0,0.14 -0.039,0.266 -0.117,0.377 C 1.891,1.216 1.782,1.299 1.644,1.354 1.505,1.408 1.248,1.436 0.873,1.436 H 0 Z M -0.768,-2.678 V 2.08 H 0.867 C 1.426,2.08 1.83,2.036 2.08,1.948 2.33,1.86 2.529,1.707 2.678,1.488 2.826,1.27 2.9,1.037 2.9,0.791 2.9,0.443 2.776,0.141 2.528,-0.117 2.28,-0.375 1.951,-0.52 1.541,-0.551 1.709,-0.621 1.844,-0.705 1.945,-0.803 2.137,-0.99 2.371,-1.305 2.648,-1.746 L 3.229,-2.678 H 2.291 l -0.422,0.75 C 1.537,-1.338 1.27,-0.969 1.066,-0.82 0.926,-0.711 0.721,-0.656 0.451,-0.656 H 0 v -2.022 z m 1.94,6.135 C 0.551,3.457 -0.054,3.298 -0.642,2.979 -1.229,2.661 -1.689,2.206 -2.021,1.614 -2.354,1.022 -2.52,0.406 -2.52,-0.234 c 0,-0.637 0.164,-1.247 0.49,-1.831 0.326,-0.584 0.782,-1.039 1.368,-1.366 0.586,-0.326 1.197,-0.489 1.834,-0.489 0.637,0 1.248,0.163 1.834,0.489 0.586,0.327 1.041,0.782 1.365,1.366 0.324,0.584 0.486,1.194 0.486,1.831 0,0.64 -0.165,1.256 -0.495,1.848 -0.33,0.592 -0.79,1.047 -1.38,1.365 -0.589,0.319 -1.193,0.478 -1.81,0.478 m 0,0.732 c 0.742,0 1.467,-0.19 2.174,-0.571 C 4.053,3.237 4.604,2.692 4.998,1.983 5.393,1.274 5.59,0.535 5.59,-0.234 5.59,-0.996 5.396,-1.729 5.007,-2.432 4.618,-3.135 4.073,-3.681 3.372,-4.069 2.671,-4.458 1.937,-4.652 1.172,-4.652 c -0.766,0 -1.499,0.194 -2.2,0.583 -0.701,0.388 -1.247,0.934 -1.638,1.637 -0.391,0.703 -0.586,1.436 -0.586,2.198 0,0.769 0.198,1.508 0.595,2.217 0.396,0.709 0.948,1.254 1.655,1.635 0.707,0.381 1.432,0.571 2.174,0.571" /></g></g></g></g></svg>